<mxfile host="app.diagrams.net" modified="2023-12-20T05:08:07.398Z" agent="Mozilla/5.0 (Windows NT 10.0; Win64; x64) AppleWebKit/537.36 (KHTML, like Gecko) Chrome/120.0.0.0 Safari/537.36" version="22.1.11" etag="Ub3oexEqjFZtwf4fT_6K" type="github">
  <diagram name="Page-1" id="ECwi3NxHJPpCtTIMUMSr">
    <mxGraphModel>
      <root>
        <mxCell id="0" />
        <mxCell id="1" parent="0" />
      </root>
    </mxGraphModel>
  </diagram>
</mxfile>
